PathFileType	4	(X/Y/Z)	OpenSim_Sub07_CSStiffKnee_Gyro.trc
DataRate	CameraRate	NumFrames	NumMarkers	Units	OrigDataRate	OrigDataStartFrame	OrigNumFrames
100	100	17	8	m	100	4209	6734
Frame#	Time	torso_imu_offset_imu	pelvis_imu_offset_imu	tibia_r_imu_offset_imu	femur_r_imu_offset_imu	tibia_l_imu_offset_imu	femur_l_imu_offset_imu	toes_r_imu_offset_imu	toes_l_imu_offset_imu
				X1	Y1	Z1	X2	Y2	Z2	X3	Y3	Z3	X4	Y4	Z4	X5	Y5	Z5	X6	Y6	Z6	X7	Y7	Z7	X8		Y8	Z8	

4209	42.08000000	0.13977609	-0.07599223	-0.14702891	-0.00393326	0.08609434	0.36349612	-1.89637294	-0.04309597	1.44545747	-0.13200233	-0.58666008	1.65361831	-0.09888768	-0.01850194	0.49364008	0.27511703	-0.39209558	0.86651558	-0.49474741	2.65597393	-1.54315114	-0.05685997	-0.05076150	0.10931864
4210	42.09000000	0.15308901	-0.05261953	-0.10370265	0.00103741	0.10001717	0.34758979	-1.29334499	0.30882365	1.69289271	0.31449733	-0.51723227	1.54409514	0.04931234	0.02337823	0.45612752	0.42419370	-0.36424790	0.83061743	-0.37962745	2.97375268	-1.31316978	-0.04657231	-0.03348017	0.11774084
4211	42.10000000	0.16319988	-0.02277706	-0.07554330	0.00683057	0.11900816	0.32021980	-0.82244681	0.62672704	1.90816550	0.71299608	-0.40487426	1.43160986	0.08179569	0.05661469	0.43429863	0.46888654	-0.34936695	0.81168940	-0.25216399	3.24815809	-1.04711451	-0.04198984	-0.01720962	0.11982434
4212	42.11000000	0.16336681	0.01849181	-0.05224356	0.00339409	0.12870780	0.30284078	-0.62072623	0.85053914	2.16651860	1.02247883	-0.28428343	1.31698837	0.08001641	0.03018971	0.39599225	0.44607903	-0.35270796	0.78633118	-0.16978896	3.39843939	-0.74292001	-0.05563901	-0.03328018	0.13517260
4213	42.12000000	0.15303266	0.05205357	-0.03423298	0.00531880	0.14063782	0.29029514	-0.55909609	1.04011904	2.44730702	1.24224303	-0.19379756	1.18015693	0.11012725	-0.00038448	0.37208965	0.33512103	-0.36713776	0.74784259	-0.08154715	3.43673674	-0.41189171	-0.03695019	-0.02923906	0.13778741
4214	42.13000000	0.14407761	0.08712484	-0.02879485	0.02448387	0.15506088	0.28020585	-0.46335504	1.18197976	2.79949990	1.40245493	-0.14488899	1.05013260	0.00638961	-0.00110093	0.40270024	0.20272866	-0.35957867	0.75812040	0.03189911	3.50243726	-0.10218228	-0.03268050	-0.04465250	0.14093946
4215	42.14000000	0.13153269	0.11534268	-0.03272985	0.04308867	0.17254459	0.26606399	-0.20928194	1.28969557	3.11659299	1.46716461	-0.15220552	0.93322631	-0.03603854	0.03939618	0.41566510	0.06050660	-0.36502372	0.76107889	0.13568955	3.68600687	0.15686305	-0.02335597	-0.00133011	0.14184800
4216	42.15000000	0.12418715	0.13500835	-0.04308971	0.05030619	0.19809861	0.23834734	0.24713454	1.47282923	3.23871532	1.43778700	-0.20322504	0.84157673	0.02445012	0.05890208	0.41944013	-0.02414759	-0.36541602	0.77158265	0.18617659	3.95474440	0.35696910	-0.02574099	-0.03862393	0.15404499
4217	42.16000000	0.10488089	0.14952394	-0.05027070	0.05473243	0.22597454	0.21509549	0.67372335	1.65812555	3.32330098	1.30933509	-0.27421318	0.74565408	0.05910380	0.03576239	0.41751194	-0.02398430	-0.39069645	0.74595988	0.16379865	4.22007887	0.49397302	-0.03295705	-0.04233810	0.16684759
4218	42.17000000	0.09175967	0.16535095	-0.06410420	0.06184048	0.25289590	0.18141826	1.03674995	1.79665888	3.35702307	1.09122875	-0.35911301	0.62474021	0.05760372	0.02087951	0.45772272	-0.10881121	-0.38749989	0.76676741	0.11304513	4.40856436	0.59425545	-0.02604986	-0.04342032	0.16672965
4219	42.18000000	0.08480674	0.17776782	-0.07046481	0.05449040	0.27799166	0.14761478	1.43895240	1.99506007	3.33903039	0.79239776	-0.41799630	0.51776685	0.08649855	0.04320503	0.48223779	-0.13080229	-0.37116584	0.78292994	0.07677176	4.51755202	0.67480135	-0.01175412	-0.00832295	0.15320635
4220	42.19000000	0.05803416	0.19232018	-0.07447682	0.05859665	0.29572405	0.15283942	1.92273785	2.26061721	3.45972909	0.46442250	-0.43243943	0.39891485	0.05917064	0.05937833	0.49275374	-0.16591841	-0.38381930	0.77613374	0.08104943	4.55529730	0.74394810	0.00500220	-0.05187367	0.15623723
4221	42.20000000	0.05269999	0.20535601	-0.08582504	0.05987197	0.29630865	0.12909554	2.54479131	2.54494307	3.64651672	0.10105375	-0.40906915	0.28341076	-0.05758540	0.04694051	0.49587400	-0.22177539	-0.39269298	0.76306082	0.14644578	4.54873147	0.83325464	-0.01980363	-0.05241928	0.16312332
4222	42.21000000	0.04747799	0.18646087	-0.08727256	0.07040306	0.28280965	0.13008954	3.09742121	2.72793690	3.83681633	-0.28119648	-0.35795729	0.15683376	-0.08234045	0.06583147	0.51603723	-0.26432615	-0.39310169	0.73754166	0.25425116	4.52629252	0.95863892	-0.00413281	-0.05859422	0.16307847
4223	42.22000000	0.04569243	0.16850090	-0.08277081	0.07648358	0.25197312	0.12319262	3.10331726	2.91934012	3.91544583	-0.60230568	-0.29087043	-0.00944138	-0.05885898	0.07158041	0.56994157	-0.29034584	-0.38607214	0.73706171	0.42500064	4.46176076	1.07025274	0.00953404	-0.05219868	0.16317448
4224	42.23000000	0.04629700	0.15849507	-0.07730915	0.08706287	0.20512356	0.12078038	2.52892744	3.14995005	3.95061936	-0.79895454	-0.13167430	-0.16865758	-0.00970921	0.10724332	0.60793211	-0.26713965	-0.42214149	0.68396110	0.52465815	4.33676633	1.14371739	0.01874203	-0.07399190	0.17492783
4225	42.24000000	0.02685112	0.15982166	-0.07419759	0.08353695	0.13947460	0.11273948	1.75919812	3.27403648	3.82611885	-0.89814800	0.11812807	-0.29928407	0.03709201	0.13184861	0.61119830	-0.28523798	-0.43192355	0.64892286	0.24614280	4.12109152	1.09277186	0.00459095	-0.09183097	0.18546831
